<svg xmlns="http://www.w3.org/2000/svg" viewBox="0 0 263.004 383.501"><defs><clipPath id="clip-path"><path d="M251.325 160.728c29.877 35.1-5.9 118.2-65.726 165.544-122.71 97.105-173.921 38.42-173.921 38.42V98.193h239.647z" fill="none"/></clipPath><style>.cls-12{fill:none}.cls-14,.cls-2{fill:#371722}.cls-14{stroke:#fff}.cls-10,.cls-12,.cls-14,.cls-7,.cls-8{stroke-miterlimit:10}.cls-10,.cls-12,.cls-14,.cls-8{stroke-width:1.075px}.cls-10,.cls-6{fill:#fff}.cls-7{fill:#f5b111}.cls-10,.cls-12,.cls-7,.cls-8{stroke:#000}.cls-7{stroke-width:1.1px}.cls-8{fill:#3c1422}</style></defs><g id="Layer_2" data-name="Layer 2"><g id="Layer_1-2" data-name="Layer 1"><ellipse class="cls-2" cx="131.502" cy="262.71" rx="157.347" ry="83.466" transform="rotate(-40.401 131.502 262.71)"/><g clip-path="url(#clip-path)"><path d="M61.873 158.367c-12.531 34.287 7.833 72.908 46.241 86.945 38.8 14.182 79.563-2 92.094-36.287s-8.446-73.461-46.853-87.5-78.955 2.555-91.482 36.842z" stroke-width="1.075" stroke-miterlimit="10" stroke="#fff" fill="#abcfc9"/><path d="M68.319 160.712c-11.364 31.094 7.1 66.119 41.935 78.849 35.188 12.861 72.154-1.814 83.518-32.908S79.683 129.618 68.319 160.712z" fill="#cfe1de"/><path d="M82.284 228.093c-1.259 3.214 10.458 12.018 26.678 18.374s31.285 6.615 32.544 3.4-10.868-10.971-27.087-17.327-30.875-7.66-32.135-4.447z"/><path class="cls-6" d="M144.6 128.052a66.582 66.582 0 0128.671 16.565 64.631 64.631 0 00-29.527-12.765 1.951 1.951 0 01.625-3.852 2.14 2.14 0 01.214.047z"/><path class="cls-6" d="M135.656 127.602l-1.413 1.163 1.741.563 1.163 1.413.562-1.742 1.413-1.163-1.741-.562-1.163-1.413-.562 1.741z"/><path class="cls-7" d="M116.216 211.455c-1.9-12.072-.5-24.172 4.637-34.152.02-.018-.068.014.02-.035 3.752-7.658 14.08-10.143 21.617-4.372 7.25 5.551 7.9 14.524 3.072 21.554-7.574 11.025-20.194 19.481-35.194 16.807"/><path d="M128.99 182.661a5 5 0 001.5 6.89 4.675 4.675 0 006.578-1.7 4.961 4.961 0 00-1.468-6.863 4.567 4.567 0 00-6.61 1.673z"/><path class="cls-8" d="M110.984 159.183a36.355 36.355 0 014.828-13.328c3.279-5.095 7.136-8.9 12.562-10.992 1.781-.686 3.237-.087 3.376 1.9.465 6.6.581 13.983 1.013 20.761-7.386-.287-14.497.65-21.779 1.659z"/><path class="cls-8" d="M155.16 206c-.628 1.4.47 2.22 1.591 1.857a59.163 59.163 0 0014.5-7.089c6.533-4.657 11.932-9.694 15.279-16.4 1.136-2.278-.144-3.646-2.756-3.548-7.02.263-15.849.6-23.172 1.037-.954.057-1.391.2-1.277 1.5a44.016 44.016 0 01-.863 13.459A54.529 54.529 0 01155.16 206z"/><path d="M114.444 211.907c-7.469.577-14.736-1.565-19.017-2.825l2.484-3.176c5.667 4.448 16.533 6.001 16.533 6.001z" stroke="#000" stroke-width="1.075" stroke-miterlimit="10"/><path d="M139.4 249.592c-16.555.214-40.911-3.944-55.465-19.538 0 0-.821 2.3-1.336 3.713 4.593 9.375 16.213 13.86 25.4 17.008a58.667 58.667 0 0029.574 2.211c.535-1.254.521-3.377 1.827-3.394z"/><path class="cls-10" d="M73.231 369.213a2.515 2.515 0 001.8-2.688c-1.789-16.007-3.095-31.755-3.558-47.006 3.941-6.252 15.807-25.7 17.412-35.623 2.644-16.354-9.688-19.076-14.293-19.526 3.741-22.107 10.978-42.07 23.353-58.816l.013-.013a46 46 0 004.3 2.49c-.006.007-.013.007-.013.013s-.076.064-.076.064.064-.058.076-.064.007-.006.013-.013a29.958 29.958 0 0013.963 3.352c11.46-.083 22.333-6.8 29.439-16.944 4.667-6.672 4.181-16.121-3.11-21.529-7.584-5.624-16.376-3.543-21.63 4.393-.083.038 0 .019-.019.032-4.827 11.166-6.583 21.726-4.686 33.8l.006.249a29.958 29.958 0 01-13.963-3.352 46 46 0 01-4.3-2.49c-5.139-3.313-9.391-7.393-14.09-11.894-3.461-3.313-9.073-9.021-12.31-12.679-3.977-5.134-1.736-14.5 5.248-15.84 17.194-3.3 37.86-8.1 55.826-7.438a33.124 33.124 0 0119.543 7.674c8.574 7.074 13.043 14.288 12.788 25.985-.16 7.642-.019 9.685-4.788 19.357a104.79 104.79 0 01-4.441 8.045c-7.066-1.988-12.494.835-15.775 9.166-1.792 4.549-.907 12.162.668 18.132a60.711 60.711 0 00-1.45 4.084c-.8 1.947-1.99 4.956-.96 7.708a31.79 31.79 0 006.6 10.8c-22.844 2.231-23.859 15.215-20.429 22.7 3.558 7.768 10.675 17.964 31.517 16.507a58.2 58.2 0 0126.786 4.464 123.784 123.784 0 018.241 13.2 76.3 76.3 0 015.891 19.7 94.45 94.45 0 01.587 13.648c-1.762 2.528-4.931 5.141-10.586 6.986a20.882 20.882 0 01-4.464.864c-8.49.823-15.116 7.661-15.138 15.982-23.385.095-60.8-.008-60.8-.008 1.717-8.4 5.822-13.126 15.112-13.975 2.764-.256 5.835-.32 8.989-.332a.408.408 0 00.013.083.408.408 0 01-.013-.083c4.725-.026 9.634.076 13.937-.128-4.3.2-9.212.1-13.937.128-3.477-19.978-20.423-35.278-37.264-44.629a13.2 13.2 0 00-3.939-1.513s1.347 24.778 3.186 45.706a13.567 13.567 0 01-13.523 14.742H61.656c.37-8.012 4.412-11.351 11.575-13.471z"/><path class="cls-8" d="M140.627 246.049c-1.575-5.97-2.46-13.583-.668-18.132 3.281-8.331 8.709-11.154 15.775-9.166-4.966 8.195-9.932 14.45-14.727 26.346-.094.233-.225.559-.38.952z"/><path class="cls-8" d="M88.885 283.9c-1.605 9.925-13.471 29.371-17.412 35.623-.588-19.359.2-37.906 3.119-55.149 4.608.446 16.937 3.168 14.293 19.526z"/><path class="cls-8" d="M173.428 300.121c3.335 4.017 6.345 7.876 8.695 11.351l.57.84a58.2 58.2 0 00-26.786-4.464c-20.842 1.457-27.959-8.739-31.517-16.507-3.43-7.487-2.415-20.471 20.429-22.7 2.175 2.464 4.788 5.071 8.056 8.86 4.905 5.692 12.986 13.899 20.553 22.62z"/><path class="cls-8" d="M182.362 366.71a20.882 20.882 0 004.464-.864c5.655-1.845 8.824-4.458 10.586-6.986a146.462 146.462 0 01-.546 9.606c-.013.217.051.919 0 1.181-1.392 7.489-5.382 12.718-14.052 12.9-3.16.069-8.783.114-15.59.142.022-8.318 6.648-15.156 15.138-15.979z"/><path class="cls-10" d="M196.9 369.463l-.006-.26a19.065 19.065 0 0017.545-12.669 17.563 17.563 0 011.987 8.119c0 10.112-8.584 18.311-19.172 18.311a18.2 18.2 0 01-7.548-1.633 13.148 13.148 0 007.194-11.868z"/><path d="M161.177 371.77c-19.012 0-34.4-14.692-34.4-32.85 0-10.721 9.1-19.412 20.326-19.412h14.115" stroke-width="1.1" stroke="#000" stroke-miterlimit="10" fill="none"/><path class="cls-12" d="M66.887 382.732a7.457 7.457 0 017.461-7.461"/><path class="cls-12" d="M113.841 382.576a7.457 7.457 0 017.461-7.461"/><circle class="cls-6" cx="133.135" cy="183.448" r="2.462"/><path class="cls-6" d="M91.943 133.425a69.531 69.531 0 0111.069-7.362l.014-.007a1.97 1.97 0 111.857 3.476 2.03 2.03 0 01-.551.2 67.434 67.434 0 00-12.389 3.693z"/><path d="M83.636 231.688a66.845 66.845 0 0021.544 13.518 78.057 78.057 0 0033.42 5.494s-.548 6.867 1.516 11.511c-4.128 2.494-23.895 2.484-41.191-4.134-11.522-4.408-16.076-9.614-19.413-13.763z" fill="#d81c36" stroke-width="1.099" stroke="#000" stroke-miterlimit="10"/><circle class="cls-14" cx="131.931" cy="257.295" r="2.919"/><circle class="cls-14" cx="119.723" cy="256.542" r="2.919"/><circle class="cls-14" cx="108.199" cy="253.711" r="2.919"/><circle class="cls-14" cx="96.892" cy="249.99" r="2.919"/><circle class="cls-14" cx="86.463" cy="244.061" r="2.919"/><path class="cls-6" d="M85.253 236.661l-1.242.169.812.955.169 1.242.955-.812 1.242-.169-.812-.955-.169-1.242-.955.812z"/><path class="cls-12" d="M89.008 317.608A15.6 15.6 0 01104.618 302"/><path d="M95.91 304.952s-4.984 4.154-4.984 10.107v7.891l-1.9-1.008s-1.007-7.437 1.762-11.867 5.122-5.123 5.122-5.123z"/><path class="cls-12" d="M89.008 317.608l.399 5.949"/><path class="cls-7" d="M69.076 170.864c1.073-2.771 4.074-4.865 7.732-5.734a79.434 79.434 0 019.679-1.773 18.675 18.675 0 012.189 15.785c-1.577 4.96-4.451 8.541-9.131 10.248-2.832-2.85-6.083-6.481-8.772-9.145s-2.692-6.811-1.697-9.381z"/><path class="cls-2" d="M101.143 189.851a1.493 1.493 0 00.558 2.142 1.666 1.666 0 002.2-.735 1.481 1.481 0 00-.551-2.142 1.665 1.665 0 00-2.207.735z"/><path class="cls-2" d="M90.567 188.354a1.492 1.492 0 00.563 2.142 1.662 1.662 0 002.2-.739 1.485 1.485 0 00-.565-2.139 1.661 1.661 0 00-2.198.736z"/><path class="cls-2" d="M98.2 180.074a1.46 1.46 0 00.52 2.127 1.684 1.684 0 002.21-.743 1.471 1.471 0 00-.529-2.139 1.674 1.674 0 00-2.201.755z"/></g><path fill="#f5b111" d="M156.752 30.228l-28.824-4.138L114.996 0l-12.842 26.134-28.81 4.237 20.887 20.29-4.873 28.708 25.751-13.594 48.909 36.617-28.083-51.803 20.817-20.361z"/></g></g></svg>