<svg id="Layer_1" data-name="Layer 1" xmlns="http://www.w3.org/2000/svg" viewBox="0 0 300 300"><defs><style>.cls-1{fill:#a5d4cc;}.cls-2{fill:#ffac00;}.cls-2,.cls-3{stroke:#000;}.cls-2,.cls-3,.cls-4{stroke-miterlimit:10;}.cls-2,.cls-4{stroke-width:3px;}.cls-3{stroke-width:9.621px;}.cls-4{fill:#411122;stroke:#fff;}.cls-5{fill:#fff;}</style></defs><circle class="cls-1" cx="150" cy="150" r="150"/><path class="cls-2" d="M208.1,111.068c0-32.357-25.612-58.587-57.207-58.587s-57.208,26.23-57.208,58.587a59.158,59.158,0,0,0,7.595,29.127c12.384,21.984,19.975,46.336,19.975,71.568v2h59.276v-2c0-25.232,7.59-49.584,19.974-71.568A59.158,59.158,0,0,0,208.1,111.068Z"/><path class="cls-3" d="M121.257,213.765h59.276a0,0,0,0,1,0,0v18.529a2.149,2.149,0,0,1-2.149,2.149H123.406a2.149,2.149,0,0,1-2.149-2.149V213.765a0,0,0,0,1,0,0Z"/><path class="cls-3" d="M168.686,251.35H133.1l-1.023-1.023V234.248h37.629v16.079Z"/><circle class="cls-4" cx="208.707" cy="86.082" r="52.115"/><path class="cls-5" d="M208.667,55.979c4.348,0,7.794,2.866,7.794,6.967,0,4.02-3.446,6.812-7.794,6.812-4.428,0-7.714-2.792-7.714-6.812C200.953,58.845,204.239,55.979,208.667,55.979Zm-6.232,60.205V74.106h12.216v42.078Z"/></svg>