<svg width="241" height="51" xmlns="http://www.w3.org/2000/svg"><g fill="none"><path fill="#F5B111" d="M109.65 5.251l-4.95-.757L102.5 0l-2.2 4.494-5 .757 3.6 3.535-.8 5 4.4-2.374 8.4 6.362-4.8-8.988z"/><g fill="#FFF"><path d="M62.5 15.855c-10.9 0-18.55 5.201-18.55 12.624 0 7.726 8.2 12.674 20.35 12.674 6.3 0 12.35-1.413 15.55-3.484l-2.95-5.15c-2.4 1.363-7.1 2.424-11.8 2.424-4.45 0-8.55-1.111-9.75-3.889H80c.25-.807.3-1.817.3-2.474 0-7.675-7.1-12.725-17.8-12.725zm-7.35 10.503c.4-2.676 3.4-4.544 7.25-4.544 3.8 0 6.9 1.868 7.05 4.544h-14.3zM89.5 6.009h-6.1v34.589h10.8V10.806c0-2.626-2.1-4.797-4.7-4.797zm108.1 0h-6.05v34.589h10.8V10.806c0-2.626-2.1-4.797-4.75-4.797zM.05 34.337v6.312h11.9V29.59h-7.2c-2.6-.05-4.7 2.07-4.7 4.747z"/><path d="M39.75 34.892c-1.3 0-2.05-.555-2.65-1.363l-2.35-3.535c-.8-1.212-1.8-2.07-2.9-2.474v-.05c6-1.162 9.45-4.596 9.45-9.544 0-6.666-5-10.453-13.8-10.453H0v10.049C.4 24.238 5.95 29.54 12.65 29.54h6.25c2.15 0 4.15.909 5.55 2.878l2.05 3.433c1.85 2.727 4.35 5.605 9.25 5.605 3 0 6.6-1.11 8.35-2.676l-2-4.847c-.5.555-1.6.96-2.35.96zM24 22.672H12v-8.18h12c3.4 0 5.45 1.515 5.45 4.09-.05 2.575-2.05 4.09-5.45 4.09zm150.9-6.817c-5.9 0-10.9 2.727-12.75 6.868h-.05V10.806c0-2.626-2.1-4.797-4.75-4.797h-6.1v34.589h5.55c2.2 0 4.1-1.717 4.6-3.888l.05-.505c.1-1.06.15-2.171.15-3.232V28.53c0-3.282 3.25-5.454 8.15-5.454 4.95 0 8.15 2.172 8.15 5.454 0 3.282-3.2 5.403-8.15 5.403-4.75 0-7.95-1.97-8.15-5.1 0 .505.05 1.06.1 1.565.05.606.1 1.262.2 1.868.1.606.2 1.212.35 1.818.25 1.111.8 2.12 1.6 2.929 2.45 2.575 6.45 4.14 11 4.14 8.4 0 13.9-4.999 13.9-12.623 0-7.625-5.45-12.675-13.85-12.675zm43.65 24.541c2.6 0 4.95-.555 6.9-1.565 2.65-1.414 4.4-4.14 4.65-7.17v-.304c.1-1.413.1-2.524.1-3.938-.35 4.04-3.15 6.615-7.25 6.615-3.8 0-6.3-2.677-6.3-6.716V16.663h-10.8l-.05 11.816c-.05 6.918 5 11.917 12.75 11.917z"/><path d="M230.2 16.613v18.784c0 4.646-4.55 7.726-11.55 7.726-4.3 0-9.25-1.566-12.75-3.484l-3.35 7.069c3.7 2.323 10.4 4.191 16.8 4.191 13.05 0 21.6-5.908 21.6-14.947V16.663l-10.75-.05zm-99.2-.758c-6.4 0-12.8 1.515-17.35 3.94l5.75 4.392c3.65-1.414 7.8-2.272 11.6-2.272 3.95 0 6.6.858 6.6 2.02 0 .454-.6.808-1.6.909l-9 .807c-9.75.91-15.5 4.141-15.5 8.888 0 4.14 4.4 6.564 11.85 6.564 2.5 0 4.85-.353 6.85-.96 4.15-1.262 7.1-5.2 7.15-10.2l.05 3.889c0 1.06.15 2.07.45 3.08.6 2.07 2.45 3.484 4.55 3.484h5.8V24.995c0-5.807-6.85-9.14-17.2-9.14zm6.35 13.988c0 2.928-4.05 4.898-10.2 4.898-3.2 0-4.9-.707-4.9-1.869 0-1.262 1.85-1.919 5.4-2.222l9.7-.858v.05zm-33.4-13.23H97.9v23.985h10.8V21.41c0-2.626-2.15-4.797-4.75-4.797z"/></g></g></svg>