<svg id="Layer_1" data-name="Layer 1" xmlns="http://www.w3.org/2000/svg" viewBox="0 0 300 300"><defs><style>.cls-1{fill:#a5d4cc;}.cls-2{fill:#ffac00;}.cls-2,.cls-3{stroke:#000;stroke-miterlimit:10;stroke-width:3px;}.cls-3{fill:#411122;}</style></defs><circle class="cls-1" cx="150" cy="149.996" r="150"/><path class="cls-2" d="M157.187,79.932a1.552,1.552,0,0,0-1.294-1.266l-13.231-2.075a3.848,3.848,0,0,1-2.512-6.069l7.887-10.811a1.556,1.556,0,0,0,.021-1.812,53.415,53.415,0,0,0-12.6-12.6,1.558,1.558,0,0,0-1.812.021l-10.811,7.887a3.848,3.848,0,0,1-6.069-2.512l-2.075-13.23a1.552,1.552,0,0,0-1.266-1.3,53.73,53.73,0,0,0-17.812,0,1.552,1.552,0,0,0-1.266,1.3L92.272,50.7A3.848,3.848,0,0,1,86.2,53.207L75.392,45.32A1.558,1.558,0,0,0,73.58,45.3a53.415,53.415,0,0,0-12.6,12.6A1.556,1.556,0,0,0,61,59.711l7.887,10.811a3.848,3.848,0,0,1-2.512,6.069l-13.23,2.075a1.552,1.552,0,0,0-1.3,1.266,53.736,53.736,0,0,0,0,17.813,1.553,1.553,0,0,0,1.3,1.265l13.23,2.075a3.848,3.848,0,0,1,2.512,6.069L61,117.965a1.556,1.556,0,0,0-.021,1.812,53.415,53.415,0,0,0,12.6,12.6,1.554,1.554,0,0,0,1.812-.021L86.2,124.469a3.848,3.848,0,0,1,6.068,2.512l2.075,13.231a1.552,1.552,0,0,0,1.266,1.294,53.676,53.676,0,0,0,17.812,0,1.552,1.552,0,0,0,1.266-1.294l2.075-13.231a3.848,3.848,0,0,1,6.069-2.512l10.811,7.887a1.554,1.554,0,0,0,1.812.021,53.415,53.415,0,0,0,12.6-12.6,1.556,1.556,0,0,0-.02-1.812l-7.888-10.811a3.848,3.848,0,0,1,2.512-6.069l13.231-2.075a1.553,1.553,0,0,0,1.294-1.265A53.682,53.682,0,0,0,157.187,79.932Zm-52.668,29.677A20.771,20.771,0,1,1,125.29,88.838,20.77,20.77,0,0,1,104.519,109.609Z"/><path class="cls-3" d="M247.979,188.062a1.906,1.906,0,0,0-1.589-1.554l-16.244-2.548a4.725,4.725,0,0,1-3.084-7.451l9.684-13.273a1.91,1.91,0,0,0,.025-2.225,65.611,65.611,0,0,0-15.469-15.47,1.915,1.915,0,0,0-2.226.025L205.8,155.25a4.723,4.723,0,0,1-7.451-3.084L195.8,135.922a1.9,1.9,0,0,0-1.553-1.589,65.959,65.959,0,0,0-21.87,0,1.9,1.9,0,0,0-1.554,1.589l-2.548,16.244a4.724,4.724,0,0,1-7.451,3.084l-13.273-9.684a1.914,1.914,0,0,0-2.225-.025,65.633,65.633,0,0,0-15.47,15.47,1.914,1.914,0,0,0,.025,2.225l9.684,13.273a4.723,4.723,0,0,1-3.084,7.451l-16.244,2.548a1.907,1.907,0,0,0-1.589,1.554,65.959,65.959,0,0,0,0,21.87,1.905,1.905,0,0,0,1.589,1.553l16.244,2.548a4.723,4.723,0,0,1,3.084,7.451l-9.684,13.274a1.914,1.914,0,0,0-.025,2.225,65.611,65.611,0,0,0,15.47,15.469,1.91,1.91,0,0,0,2.225-.025l13.274-9.684a4.722,4.722,0,0,1,7.45,3.085l2.548,16.243a1.9,1.9,0,0,0,1.554,1.589,65.905,65.905,0,0,0,21.87,0,1.9,1.9,0,0,0,1.553-1.589l2.548-16.243a4.725,4.725,0,0,1,7.451-3.085l13.273,9.684a1.912,1.912,0,0,0,2.226.025,65.588,65.588,0,0,0,15.469-15.469,1.91,1.91,0,0,0-.025-2.225l-9.684-13.274a4.724,4.724,0,0,1,3.085-7.451l16.243-2.548a1.9,1.9,0,0,0,1.589-1.553A65.905,65.905,0,0,0,247.979,188.062ZM183.316,224.5a25.5,25.5,0,1,1,25.5-25.5A25.5,25.5,0,0,1,183.316,224.5Z"/></svg>